<?xml version="1.0" encoding="UTF-8"?>
<svg version="1.1" viewBox="0 0 2048 2048" width="1280" height="1280" xmlns="http://www.w3.org/2000/svg">
<path transform="translate(153,413)" d="m0 0h161v279l11-7 10-7 17-10 19-10 25-10 22-7 26-6 21-3 12-1h40l27 3 29 6 22 7 16 6 24 11 16 9 14 9 14 10 16 13 13 12 16 16 9 11 12 15 12 18 11 19 8 16 9 20 7 20 7 24 5 24 3 22 1 12v46l-3 28-6 31-7 24-8 22-9 20-12 23-12 19-14 19-12 14-14 15-7 7-8 7-13 11-19 13-15 10-29 15-23 9-26 8-29 6-31 3h-28l-31-3-29-6-20-6-22-8-29-14-18-11-19-13-1 48h-161zm319 377-24 3-22 6-21 9-18 11-13 10-12 11-11 12-10 14-8 14-8 17-6 19-4 22-1 13v13l2 20 5 22 8 21 9 17 9 13 8 10 11 12 11 9 12 9 17 10 16 7 19 6 15 3 8 1h35l19-3 18-5 19-8 18-10 12-9 14-12 12-13 11-15 9-16 7-15 6-19 4-21 1-11v-19l-3-24-6-22-9-21-10-17-10-13-11-12-8-8-17-13-21-12-20-8-19-5-23-3z" fill="#015BFB"/>
<path transform="translate(1622,631)" d="m0 0h44l24 3 24 5 20 6 22 9 16 8 16 9 17 12 11 9 10 9 14 14 11 14 10 14 9 16 10 21 8 24 5 23 2 14 1 13v417h-162l-1-400-4-17-6-13-7-12-12-13-14-10-17-8-16-5-20-3h-25l-21 3-18 5-18 8-12 8-13 11-9 10-9 14-7 14-6 21-1 7-1 380h-162v-624h162l1 30 9-8 18-10 29-13 25-8 25-5z" fill="#015BFB"/>
<path transform="translate(1025,477)" d="m0 0h54v170h182v157h-182l1 259 4 17 7 14 8 10 10 9 17 9 15 4 7 1h35l25-3 19-4 18-6 16-8v154l-16 8-16 6-20 5-28 4-16 1h-24l-22-2-26-5-21-6-19-7-25-12-19-12-16-13-12-11-12-13-14-19-12-21-10-23-8-26-5-25-2-17-1-18v-250h-109v-56l12-10 13-10 36-28 14-11 18-14 14-11h2v-111l9-7 66-46 23-16z" fill="#015BFB"/>
<path transform="translate(1866,307)" d="m0 0h10l9 4 5 4 4 6 2 7v79l-3 17-6 16-8 13-8 10-7 7-11 8-15 8-16 5-473 85h-7l-5-3-2-5v-38l2-9 5-9 8-8 16-7 113-43 105-40 155-59 105-40 18-7z" fill="#f00"/>
<path transform="translate(1331,1390)" d="m0 0h31l19 4 14 5 19 10 13 10 8 7 7 8 11 15 10 19 8 24 3 18v34l-1 1h-198l7 21 7 12 9 10 8 7 16 8 11 3 8 1h11l16-3 16-8 9-7 8-8 7-10 11 2 43 10-1 5-9 16-11 14-14 14-15 11-19 10-20 6-12 2h-30l-20-4-16-6-15-8-12-9-10-9-9-9-11-15-11-21-5-15-4-19-1-11v-19l3-21 4-15 8-19 9-15 11-14 12-12 15-11 16-9 16-6zm7 47-17 4-15 8-12 11-7 8-8 14-5 14-1 8h146l-1-10-5-13-7-12-9-10-5-5-11-8-13-6-14-3z" fill="#f00"/>
<path transform="translate(528,1389)" d="m0 0 19 1 16 3 15 5 19 10 16 12 15 15 10 14 9 16 6 15 5 19 2 16v22l-3 20-6 20-8 16-7 12-11 14-12 12-15 11-12 7-17 7-17 4-7 1h-28l-17-3-18-6-17-9-12-9-10-9-9-9-11-15-8-14-7-18-4-16-2-16v-23l3-20 6-20 9-19 8-12 9-11 14-14 14-10 17-9 21-7 12-2zm-5 54-14 3-12 5-11 8-9 8-10 14-7 15-4 17v25l4 17 8 16 7 10 12 12 11 7 12 5 8 2 17 1 14-2 13-5 10-6 10-9 9-10 9-16 5-17 1-5v-24l-3-14-6-15-7-11-9-10-9-8-14-8-13-4-7-1z" fill="#f00"/>
<path transform="translate(1079,1390)" d="m0 0h29l17 4 13 5 14 8 11 9 10 10 9 13 8 16 4 12 2 11 1 11v165l-1 1h-53l-1-156-4-16-5-10-7-9-9-8-12-7-14-4h-20l-12 3-12 6-11 9-8 10-6 13-3 13-1 156h-53l-1-1v-257h54l1 26 7-8 10-8 14-8 15-6z" fill="#f00"/>
<path transform="translate(806,1390)" d="m0 0h29l17 4 13 5 14 8 13 11 7 7 10 14 7 14 5 15 2 11v176h-53l-1-154-3-15-7-14-8-10-10-8-12-6-11-3h-21l-14 4-12 7-10 9-8 11-5 12-2 9-1 158h-53l-1-1v-257h54l1 25 10-10 13-9 14-7 17-5z" fill="#015BFB"/>
<path transform="translate(1604,1390)" d="m0 0h29l20 4 16 6 17 9 12 9 10 9 10 11 3 4v3l-23 12-22 12-3 1-6-7-12-9-16-7-15-3h-10l-16 3-12 5-12 8-11 11-9 14-5 11-4 16v27l4 16 8 17 12 15 13 10 15 7 15 3h13l14-3 10-4 12-7 12-11 4 1 34 18 10 6-2 5-11 12-8 8-14 10-16 9-16 6-20 4h-31l-16-3-15-5-16-8-13-9-14-12-9-10-11-16-8-15-7-20-3-16-1-8v-27l3-19 6-19 9-19 8-12 9-11 13-13 15-11 15-8 16-6z" fill="#f00"/>
<path transform="translate(281,1389)" d="m0 0 20 1 16 3 19 7 15 8 16 12 15 15 6 9-28 15-18 10-4-1-8-8-11-7-13-6-14-3h-15l-14 3-16 8-9 7-5 5-7 8-8 14-5 14-2 10v25l4 16 5 12 7 11 9 10 8 7 12 7 16 5 16 1 13-2 14-5 13-8 11-10 5 1 28 15 16 9-6 8-7 8-8 8-15 11-21 11-20 6-13 2h-26l-18-3-15-5-16-8-11-7-11-9-13-13-11-15-8-14-7-18-4-16-2-16v-24l3-19 6-20 9-19 8-12 8-10 15-15 14-10 17-9 21-7 11-2z" fill="#015BFB"/>
<path transform="translate(1786,1316)" d="m0 0h54v81h54v54h-54v204h-54v-204h-40l-1-1v-53h41z" fill="#015BFB"/>
<path transform="translate(528,1389)" d="m0 0 19 1 16 3 15 5 19 10 16 12 15 15 10 14 9 16 6 15 4 16-50 11h-3l-6-18-8-14-11-12-7-6-14-8-13-4-7-1h-15l-14 3-12 5-11 8-8 7-10 14-7 15-4 17v27l-51 11h-2l-2-14v-23l3-20 6-20 9-19 8-12 9-11 14-14 14-10 17-9 21-7 12-2z" fill="#015BFB"/>
<path transform="translate(908,1440)" d="m0 0 3 3 5 10 5 15 2 11v176h-53l-1-154-3-15-7-14-8-10-7-6v-2z" fill="#f00"/>
<path transform="translate(1786,1316)" d="m0 0h54v81h6v25l-4 17-7 16-9 15-11 13-15 15-13 10h-1v-57h-40l-1-1v-53h41z" fill="#f00"/>
<path transform="translate(1553,1572)" d="m0 0 5 1 7 9 4 5 13 10 15 7 15 3h13l14-3 10-4 12-7 12-11 4 1 34 18 10 6-2 5-11 12-8 8-14 10-16 9-16 6-20 4h-31l-16-3-15-5-16-8-13-9-14-12-9-10-11-16-8-15-1-5 24-3z" fill="#015BFB"/>
<path transform="translate(1408,1571)" d="m0 0 11 2 43 10-1 5-9 16-11 14-14 14-15 11-19 10-20 6-12 2h-30l-20-4-16-6-15-8-12-9-10-9-9-9-7-9 1-3 58-6h10l11 5 11 3 8 1h11l16-3 16-8 9-7 8-8z" fill="#015BFB"/>
<path transform="translate(748,1475)" d="m0 0h5l-5 13-2 9-1 158h-53l-1-1v-166l30-7z" fill="#f00"/>
<path transform="translate(339,1582)" d="m0 0 5 1 28 15 16 9-6 8-7 8-8 8-15 11-21 11-20 6-13 2h-26l-18-3-15-5-16-8-11-7-11-9-2-3 6-12 9-10 13-9 10-5 5 2 10 7 12 5 8 2 16 1 13-2 14-5 13-8z" fill="#f00"/>
<path transform="translate(1195,1609)" d="m0 0h2v45l-1 1h-53v-40l13-2z" fill="#015BFB"/>
<path transform="translate(964,1397)" d="m0 0h54v19l-5 2-46 10h-3z" fill="#015BFB"/>
<path transform="translate(1011,1628)" d="m0 0h7v27h-53l-1-1v-21z" fill="#015BFB"/>
<path transform="translate(1079,1390)" d="m0 0h29l14 3-4 2-87 19-2-1 7-6 14-8 15-6z" fill="#015BFB"/>
<path transform="translate(914,1638)" d="m0 0h9v17h-53v-12l35-4z" fill="#015BFB"/>
<path transform="translate(1408,1571)" d="m0 0 11 2 35 8 2 2-58 6-4-1 7-7z" fill="#f00"/>
</svg>
